<?xml version="1.0" encoding="UTF-8"?>
<svg width="400px" height="69px" viewBox="0 0 400 69" version="1.1" xmlns="http://www.w3.org/2000/svg" xmlns:xlink="http://www.w3.org/1999/xlink">
    <title>symbol+text</title>
    <g id="Page-1" stroke="none" stroke-width="1" fill="none" fill-rule="evenodd">
        <g id="Medium-Copy-7" transform="translate(-708.000000, -362.000000)" fill="#161618">
            <path d="M764.162104,417.58315 L764.162911,431 L708,431 L708,375.414853 L721.556,375.414 L721.556593,362 L777.719503,362 L777.719503,417.58315 L764.162104,417.58315 Z M721.5574,417.582551 L764.162911,417.582551 L764.162104,375.415452 L721.557,375.415 L721.5574,417.582551 Z M802.299404,375.514115 L811.766174,375.514115 L823.672792,408.33274 L835.757,375.514115 L844.985638,375.514115 L844.985638,417.581952 L837.722601,417.581952 L837.722601,387.41566 L826.53038,417.581952 L820.516529,417.581952 L809.503917,387.651334 L809.503917,417.581952 L802.299404,417.581952 L802.299404,375.514115 Z M850.104475,417.583949 L857.605644,417.583949 L857.605644,386.946309 L850.104475,386.946309 L850.104475,417.583949 Z M850.04595,382.053074 L857.607662,382.053074 L857.607662,375.396278 L850.04595,375.396278 L850.04595,382.053074 Z M864.928617,414.195035 C862.347505,411.309025 861.059976,407.37047 861.059976,402.381368 C861.059976,399.043983 861.673469,396.145989 862.904492,393.689386 C864.133497,391.236777 865.881147,389.341398 868.143404,388.005245 C870.405661,386.67109 873.103822,386.002015 876.239904,386.002015 C880.128727,386.002015 883.176014,386.944711 885.377729,388.830104 C887.581462,390.715498 888.939624,393.347858 889.45625,396.725189 L882.251737,397.667885 C881.9349,395.940274 881.329479,394.566174 880.437492,393.543588 C879.543486,392.521001 878.124782,392.011706 876.179362,392.011706 C873.519545,392.011706 871.626594,392.964388 870.494457,394.869754 C869.364337,396.77512 868.797259,399.21974 868.797259,402.203614 C868.797259,405.189486 869.352229,407.656076 870.464186,409.599389 C871.576143,411.542702 873.481201,412.515357 876.179362,412.515357 C878.165144,412.515357 879.662552,411.986089 880.675624,410.923558 C881.686677,409.865021 882.33246,408.431004 882.608936,406.623503 L889.871973,406.623503 C889.397726,410.356342 887.997185,413.27231 885.676403,415.373405 C883.353604,417.476498 880.128727,418.525048 876.001772,418.525048 C871.198763,418.525048 867.507712,417.081044 864.928617,414.195035 M926.724973,386.002214 C931.564307,386.002214 935.334063,387.424248 938.034242,390.27231 C940.732402,393.12237 942.082492,397.058927 942.082492,402.085977 C942.082492,407.192916 940.702131,411.21136 937.945447,414.137314 C935.186744,417.061272 931.386716,418.525248 926.545364,418.525248 C921.663651,418.525248 917.883805,417.101217 915.203806,414.253154 C912.523808,411.405092 911.183809,407.42859 911.183809,402.321651 C911.183809,398.94432 911.819502,396.038338 913.090886,393.601707 C914.360253,391.169071 916.156336,389.291666 918.479135,387.975486 C920.799917,386.661303 923.546511,386.002214 926.724973,386.002214 Z M908.98048,386.414245 C909.537467,386.414245 910.064184,386.434217 910.560629,386.474162 C911.057075,386.512109 911.50105,386.572027 911.900628,386.651916 L911.006623,393.190875 C910.132798,392.955201 909.200449,392.835367 908.209577,392.835367 C907.214668,392.835367 906.274247,392.983162 905.380241,393.278754 C904.488254,393.572348 903.6447,394.05568 902.849581,394.722757 C902.056479,395.34989 901.430877,396.11683 900.974793,397.019582 C900.518709,397.924331 900.290667,399.00284 900.290667,400.2611 L900.290667,417.58315 L892.789498,417.58315 L892.789498,386.94551 L900.111058,386.94551 L900.111058,391.245565 C902.413677,388.026016 905.370151,386.414245 908.98048,386.414245 Z M926.603889,392.009908 C923.946089,392.009908 922.000669,392.93463 920.769646,394.780078 C919.538623,396.627524 918.923111,399.102102 918.923111,402.203814 C918.923111,405.30952 919.528532,407.802074 920.741393,409.687467 C921.950217,411.57286 923.90371,412.515557 926.603889,412.515557 C929.304067,412.515557 931.26765,411.57286 932.498673,409.687467 C933.727678,407.802074 934.34319,405.30952 934.34319,402.203814 C934.34319,399.102102 933.727678,396.627524 932.498673,394.780078 C931.26765,392.93463 929.304067,392.009908 926.603889,392.009908 Z M956.191228,375.514115 L983.75404,375.514115 L983.75404,382.053074 L964.051614,382.053074 L964.051614,393.720942 L982.504854,393.720942 L982.504854,400.377739 L964.051614,400.377739 L964.051614,417.581952 L956.191228,417.581952 L956.191228,375.514115 Z M1001.19764,412.515557 C1003.89782,412.515557 1005.8614,411.57286 1007.09242,409.687467 C1008.32143,407.802074 1008.93694,405.30952 1008.93694,402.203814 C1008.93694,399.102102 1008.32143,396.627524 1007.09242,394.780078 C1005.8614,392.93463 1003.89782,392.009908 1001.19764,392.009908 C998.539839,392.009908 996.594419,392.93463 995.363396,394.780078 C994.132372,396.627524 993.516861,399.102102 993.516861,402.203814 C993.516861,405.30952 994.122282,407.802074 995.335143,409.687467 C996.543967,411.57286 998.49746,412.515557 1001.19764,412.515557 M1012.5392,414.137314 C1009.78049,417.061272 1005.98047,418.525248 1001.13911,418.525248 C996.257401,418.525248 992.477554,417.101217 989.797556,414.253154 C987.117558,411.405092 985.777559,407.42859 985.777559,402.321651 C985.777559,398.94432 986.413251,396.038338 987.684636,393.601707 C988.954003,391.169071 990.750086,389.291666 993.072885,387.975486 C995.393667,386.661303 998.140261,386.002214 1001.31872,386.002214 C1006.15806,386.002214 1009.92781,387.424248 1012.62799,390.27231 C1015.32615,393.12237 1016.67624,397.058927 1016.67624,402.085977 C1016.67624,407.192916 1015.29588,411.21136 1012.5392,414.137314 M1022.92742,414.195035 C1020.34832,411.309025 1019.05676,407.37047 1019.05676,402.381368 C1019.05676,399.043983 1019.67227,396.145989 1020.90329,393.689386 C1022.1323,391.236777 1023.87995,389.341398 1026.1422,388.005245 C1028.40446,386.67109 1031.10262,386.002015 1034.23669,386.002015 C1038.12753,386.002015 1041.17481,386.944711 1043.37653,388.830104 C1045.58026,390.715498 1046.93842,393.347858 1047.45505,396.725189 L1040.25054,397.667885 C1039.9337,395.940274 1039.32828,394.566174 1038.43629,393.543588 C1037.54229,392.521001 1036.12358,392.011706 1034.17816,392.011706 C1031.52036,392.011706 1029.62338,392.964388 1028.49326,394.869754 C1027.36112,396.77512 1026.79606,399.21974 1026.79606,402.203614 C1026.79606,405.189486 1027.35103,407.656076 1028.46299,409.599389 C1029.57494,411.542702 1031.47798,412.515357 1034.17816,412.515357 C1036.16394,412.515357 1037.66135,411.986089 1038.67442,410.923558 C1039.68548,409.865021 1040.33126,408.431004 1040.60975,406.623503 L1047.87077,406.623503 C1047.39451,410.356342 1045.99599,413.27231 1043.67319,415.373405 C1041.3524,417.476498 1038.12753,418.525048 1034.00057,418.525048 C1029.19756,418.525048 1025.50651,417.081044 1022.92742,414.195035 M1077.93559,417.582951 L1070.55349,417.582951 L1070.55349,413.340816 C1069.16303,415.108372 1067.63535,416.414566 1065.96843,417.259398 C1064.3015,418.102233 1062.49533,418.525647 1060.55193,418.525647 C1057.17771,418.525647 1054.66723,417.572964 1053.02049,415.667599 C1051.37374,413.762233 1050.55037,411.004047 1050.55037,407.389045 L1050.55037,386.94531 L1058.04952,386.94531 L1058.04952,406.034917 C1058.04952,408.273821 1058.43901,409.875607 1059.21193,410.836279 C1059.98485,411.798948 1061.22596,412.280282 1062.93123,412.280282 C1064.95536,412.280282 1066.70301,411.57326 1068.17216,410.159215 C1068.88656,409.49014 1069.44153,408.765142 1069.83707,407.97823 C1070.23665,407.193315 1070.43442,406.212671 1070.43442,405.032303 L1070.43442,386.94531 L1077.93559,386.94531 L1077.93559,417.582951 Z M1080.49571,408.331941 L1087.63968,408.331941 C1087.95652,410.06155 1088.69917,411.277868 1089.87167,411.98489 C1091.04215,412.691913 1092.65863,413.045424 1094.72311,413.045424 C1096.82796,413.045424 1098.33546,412.691913 1099.24763,411.98489 C1100.15979,411.277868 1100.6179,410.335171 1100.6179,409.156801 C1100.6179,408.136212 1100.31922,407.271407 1099.72389,406.564385 C1099.12856,405.857362 1097.89754,405.368039 1096.03284,405.09242 L1092.34179,404.503235 C1088.61038,403.912052 1085.82342,402.931408 1083.9789,401.55531 C1082.13237,400.18121 1081.21011,398.080115 1081.21011,395.252025 C1081.21011,392.346043 1082.40884,390.07718 1084.81237,388.447434 C1087.21185,386.817687 1090.33784,386.000816 1094.18631,386.000816 C1097.12462,386.000816 1099.49585,386.366311 1101.30202,387.091309 C1103.1082,387.818303 1104.49663,388.828906 1105.46934,390.127111 C1106.44003,391.421322 1107.10801,392.935229 1107.46319,394.66284 L1100.55735,395.547617 C1100.12145,394.133572 1099.46558,393.063052 1098.59377,392.336057 C1097.71995,391.609062 1096.27097,391.245565 1094.24685,391.245565 C1092.02495,391.245565 1090.47507,391.619048 1089.60327,392.366016 C1088.72944,393.112983 1088.29354,393.977787 1088.29354,394.958431 C1088.29354,395.97902 1088.62047,396.795891 1089.27634,397.403051 C1089.93221,398.012209 1091.22983,398.471574 1093.17525,398.787138 L1097.28203,399.49416 C1101.17287,400.201183 1103.92955,401.271703 1105.55813,402.70572 C1107.18672,404.139737 1108,406.270791 1108,409.098881 C1108,411.926971 1106.89813,414.203823 1104.6944,415.933431 C1102.49268,417.661043 1099.20727,418.525847 1094.84218,418.525847 C1090.75357,418.525847 1087.40155,417.728949 1084.7821,416.139147 C1082.16062,414.547348 1080.73183,411.946943 1080.49571,408.331941" id="symbol+text"></path>
        </g>
    </g>
</svg>